<?xml version="1.0" encoding="utf-8"?>
<!-- Generator: Adobe Illustrator 16.0.0, SVG Export Plug-In . SVG Version: 6.00 Build 0)  -->
<!DOCTYPE svg PUBLIC "-//W3C//DTD SVG 1.1//EN" "http://www.w3.org/Graphics/SVG/1.1/DTD/svg11.dtd">
<svg version="1.1" id="Capa_1" xmlns="http://www.w3.org/2000/svg" xmlns:xlink="http://www.w3.org/1999/xlink" x="0px" y="0px"
	 width="50px" height="53px"  viewBox="0 0 50 53" enable-background="new 0 0 50 53" xml:space="preserve">
<path d="M49.957,41.619c-0.523-6.732-1.139-13.461-1.83-20.179c-0.1-0.966-0.52-1.875-1.195-2.409
	C38.469,12.816,29.406,6.168,21.307,0.22c-2.689,3.054-5.985,6.819-8.541,9.723c-4.379,4.941-8.299,9.302-12.117,13.75
	c-0.493,0.574-0.696,1.622-0.63,2.416c0.57,6.82,1.212,13.634,1.876,20.444c0.399,4.089,3.051,6.413,7.166,6.216
	c2.484-0.118,4.959-0.414,7.435-0.668c3.738-0.382,9.405-0.951,13.305-1.371c4.658-0.431,9.074-0.823,13.488-1.252
	C47.963,49.022,50.322,46.324,49.957,41.619z"/>
</svg>
